<?xml version="1.0" standalone="no"?>
<!DOCTYPE svg PUBLIC "-//W3C//DTD SVG 20010904//EN"
 "http://www.w3.org/TR/2001/REC-SVG-20010904/DTD/svg10.dtd">
<svg version="1.0" xmlns="http://www.w3.org/2000/svg"
 width="960.000000pt" height="960.000000pt" viewBox="0 0 960.000000 960.000000"
 preserveAspectRatio="xMidYMid meet">
<metadata>
Created by potrace 1.14, written by Peter Selinger 2001-2017
</metadata>
<g transform="translate(0.000000,960.000000) scale(0.100000,-0.100000)"
fill="#000000" stroke="none">
<path d="M1299 9596 c-2 -2 -38 -7 -79 -11 -109 -10 -326 -58 -385 -84 -11 -5
-47 -19 -80 -31 -271 -97 -520 -348 -630 -635 -55 -144 -79 -237 -101 -385 -2
-14 -7 -45 -11 -70 -10 -65 -13 -7031 -3 -7115 5 -38 12 -91 15 -117 2 -25 7
-52 9 -60 3 -7 8 -30 11 -51 8 -55 52 -207 80 -275 105 -254 278 -452 505
-576 150 -82 399 -153 613 -174 102 -10 7047 -9 7132 1 39 5 93 13 120 18 28
5 64 12 80 15 91 15 235 65 355 122 106 50 252 159 325 241 16 19 35 39 41 45
20 21 97 139 126 195 82 155 139 357 165 586 10 90 11 7037 0 7131 -4 39 -10
82 -12 95 -3 13 -8 40 -11 59 -12 74 -58 238 -84 305 -125 315 -347 537 -655
653 -87 33 -197 66 -260 78 -22 5 -42 9 -45 9 -3 1 -25 5 -50 9 -25 3 -61 10
-80 13 -37 7 -7084 16 -7091 9z"/>
</g>
</svg>
